<svg id="Calque_1" data-name="Calque 1" xmlns="http://www.w3.org/2000/svg" xmlns:xlink="http://www.w3.org/1999/xlink" viewBox="0 0 272.93 62.23"><defs><style>.cls-1{fill:none;}.cls-2{clip-path:url(#clip-path);}.cls-3{fill:#e30520;}.cls-4{fill:#008d58;}.cls-5{fill:#fff;}</style><clipPath id="clip-path" transform="translate(0 0)"><rect class="cls-1" width="272.93" height="62.23"/></clipPath></defs><title>logo</title><g class="cls-2"><path class="cls-3" d="M239.34,48.55L243,55.66a3.08,3.08,0,0,0,1.87,1.86l2.43-9.17a2.6,2.6,0,0,1,1.39-2.06V46.25h-2.85V46.3c0.73,0.49.54,1.14,0.3,2.06l-1.65,6.2L240.58,47l-0.14-.33a0.75,0.75,0,0,1-.13-0.41v0h-2.37V46.3c0.71,0.49.54,1.14,0.3,2.06l-1.73,6.52A2.63,2.63,0,0,1,235.08,57v0h2.87v0c-0.72-.51-0.53-1.16-0.29-2.08Zm-9.18-1.41c2.56,0,3.45,2.3,2.82,4.69a5.48,5.48,0,0,1-5.16,4.25c-2.54,0-3.52-2.35-2.92-4.64a5.56,5.56,0,0,1,5.26-4.3M230.58,46A8,8,0,0,0,223,51.59c-0.89,3.35,1.2,5.67,4.41,5.67a8.07,8.07,0,0,0,7.49-5.75A4.18,4.18,0,0,0,230.58,46m-8.73.38a7.2,7.2,0,0,0-2.32-.36c-2,0-4.28.78-4.82,2.84-0.92,3.47,4.77,3,4.1,5.56-0.3,1.14-1.85,1.7-2.77,1.7a4.28,4.28,0,0,1-3.19-1.36l-0.07,2a7.31,7.31,0,0,0,2.77.49c2.53,0,4.78-1.64,5.24-3.38,0.8-3-4.78-3-4.18-5.23a2.41,2.41,0,0,1,2.49-1.49,2.79,2.79,0,0,1,2.27,1ZM209.1,54.71c-0.2.74-.42,1.94-1.31,2.24v0h3.08v0c-0.73-.31-0.31-1.5-0.12-2.24l1.64-6.16c0.19-.74.42-1.94,1.31-2.26V46.25h-3.08V46.3c0.74,0.31.32,1.5,0.11,2.26Zm-5.69-3h-3.19l2.7-4.12ZM203.55,53l0.26,2.31c0.13,1.14.21,1.32-.67,1.68v0h3.32v0c-0.8-.47-0.85-1.39-1-2.32l-1.14-8.39h-2.56V46.3c0.71,0.24.22,0.93-.16,1.52l-4.51,6.82A5.34,5.34,0,0,1,194.91,57v0h3v0c-0.7-.29-0.46-0.77.12-1.68L199.47,53h4.08ZM185,53l-1.62-10.3a2.44,2.44,0,0,1,0-1.05v0h-4.05l0,0.07c0.91,0.58.41,1.52,0.14,2.17l-3.92,9.78a6.64,6.64,0,0,1-2.16,3.27l0,0.07h3.77l0-.07c-1-.49-0.52-1.52,0-2.94l4-10,1.6,10.53A4.06,4.06,0,0,0,184,57.31l8.74-13.38-1.67,11.25a2.13,2.13,0,0,1-1.41,1.75l0,0.07h4.47l0-.07c-0.75-.65-0.7-1.28-0.55-2.38l1.52-11.47a1.84,1.84,0,0,1,1.08-1.38l0-.07h-4v0a5.31,5.31,0,0,1-.73,1.45Zm-22.5,1.66a4.39,4.39,0,0,1-2.82,1.44,1.62,1.62,0,0,1-1.74-2.2,4.54,4.54,0,0,1,2.15-2.48Zm-1.62-5.16a2.13,2.13,0,0,1-.7-1.74,1.33,1.33,0,0,1,1.35-1,0.79,0.79,0,0,1,.88,1,3.3,3.3,0,0,1-1.53,1.68m7,7.49v0c-2.75-1.46-4.5-4.05-6.34-6.45a4.72,4.72,0,0,0,2.1-2.48,1.7,1.7,0,0,0-1.78-2.31A3.45,3.45,0,0,0,158.7,48a2.84,2.84,0,0,0,.7,2.36c-1.47,1-2.81,2-3.25,3.62-0.55,2.08,1,3.2,2.9,3.2a4.93,4.93,0,0,0,4-2,7,7,0,0,0,1.59,1.47,2.91,2.91,0,0,0,1.49.27h1.81Zm-26.29-8.45,3.67,7.11a3.08,3.08,0,0,0,1.87,1.86l2.44-9.17A2.6,2.6,0,0,1,151,46.3V46.25h-2.85V46.3c0.73,0.49.54,1.14,0.29,2.06l-1.64,6.2L142.87,47l-0.14-.33a0.76,0.76,0,0,1-.13-0.41v0h-2.37V46.3c0.71,0.49.54,1.14,0.29,2.06l-1.73,6.52A2.63,2.63,0,0,1,137.38,57v0h2.87v0c-0.72-.51-0.53-1.16-0.29-2.08Zm-7.79,6.16c-0.19.74-.42,1.94-1.31,2.24v0h3.08v0c-0.73-.31-0.31-1.5-0.12-2.24l1.64-6.16c0.2-.74.42-1.94,1.31-2.26V46.25h-3.08V46.3c0.74,0.31.31,1.5,0.11,2.26Zm-8.19-7.11a6.89,6.89,0,0,1,1.51-.18c2.71,0,3.91,1.44,3.15,4.3a5.59,5.59,0,0,1-5.66,4.1,5.25,5.25,0,0,1-1.15-.11Zm-3.52,7c-0.26,1-.37,1.75-1.33,2.3v0h3.89a7.61,7.61,0,0,0,7.53-5.47c0.86-3.25-.9-5.28-4.59-5.28h-4V46.3c0.76,0.24.33,1.44,0.13,2.19Zm-7.88-8.4V46.3c0.74,0.31.31,1.5,0.11,2.26l-1.64,6.16c-0.19.74-.4,1.94-1.31,2.24v0h3.09v0c-0.75-.29-0.33-1.49-0.13-2.24l1.94-7.32a9.24,9.24,0,0,1,1.14-.13,1.4,1.4,0,0,1,1.61,1.81c-0.41,1.54-2.08,2.14-3.42,2.34l0.88,2.31,1.32,2.47a1.61,1.61,0,0,0,1.66.82H121a7.69,7.69,0,0,1-2-2.29l-1.55-3a4.53,4.53,0,0,0,3.34-2.88c0.4-1.49-.48-2.63-2.65-2.63h-3.86ZM107,51.75H103.8l2.7-4.12ZM107.14,53l0.26,2.31c0.13,1.14.22,1.32-.67,1.68v0H110v0c-0.8-.47-0.85-1.39-1-2.32l-1.14-8.39h-2.56V46.3c0.71,0.24.22,0.93-.16,1.52l-4.52,6.82A5.33,5.33,0,0,1,98.5,57v0h3v0c-0.7-.29-0.46-0.77.12-1.68L103.06,53h4.08Z" transform="translate(0 0)"/><path class="cls-3" d="M93.88,56.64c-0.67,2.5-1.3,3.88-4.3,5.52l0,0.07c3.5-.37,5.64-1.71,6.29-4.16L99.37,45c0.28-1.06.6-2.75,1.87-3.19l0-.07H96.84l0,0.07C97.89,42.22,97.3,43.9,97,45Z" transform="translate(0 0)"/><path class="cls-4" d="M86.4,23.51c3.44,0,5.94-.15,8.12-1a6.75,6.75,0,0,0,4.38-4.29C100.28,14,95,14,92.33,14c-1,0-1.92,0-2.89,0Zm-0.09.32-1,3a90.69,90.69,0,0,0-2.89,10.92L81.9,38c-5.61,0-6.71,0-11.76.12l-0.33-.25c1.29-3.4,1.95-5.24,3.17-9.05,3.56-11.14,4.65-15.41,5.7-19.54L79.1,9h8.36l4.81,0c8-.08,11.73,0,14.94,1.07,5.06,1.76,4.69,5.49,4.11,7.29-1.66,5.2-8.45,6.92-11.79,7.74,1.14,1.8,1.88,2.91,3.41,5,3.43,4.71,4,5.32,5.95,7.33l-0.57.49c-2.12,0-4.34.08-6.47,0.08-3,0-6.58-.83-8.45-3.68Z" transform="translate(0 0)"/><path class="cls-4" d="M214.68,31c-0.6,1.89-1.08,3.77-1.62,5.65l-0.42.33a70.71,70.71,0,0,1-15.5,1.8,43,43,0,0,1-8.25-.7c-2.32-.45-6.62-1.43-9.36-4.55-2.09-2.38-2.63-5.61-1.41-9.46a19.41,19.41,0,0,1,6-8.64c6.75-5.49,15.07-6.8,22.29-6.8a40.35,40.35,0,0,1,12.87,1.88l0.24,0.25c-1.29,2.46-1.63,3.11-2.76,5.65l-0.54.12a19.23,19.23,0,0,0-9.83-2.5c-8,0-14.47,3.52-16.54,10-1,3.07-1.15,9.14,8.66,9.14a33.15,33.15,0,0,0,4.89-.45c1.32-3.73,1-2.95,1.72-7l0.39-.25,10.79-.12,0.24,0.25c-0.73,2.09-.88,2.37-1.54,4.42Z" transform="translate(0 0)"/><path class="cls-4" d="M135.82,25.62l5.38-6.92,3.74-4.79,0.2,5.33,0.3,6.39h-9.61Zm22.91,4.3,0.48-.2,3.85-4-0.35-.12h-6.35c-0.82-7-1.1-9.86-1.6-16.12l-0.37-.25c-6.11.12-7.38,0.12-14.14,0.12l-0.52.25c-5.58,7-8.92,11.1-23.74,28.39l0.16,0.29H126l0.52-.25,8.3-11.17s0.31,3.25,4.79,3.25h5.92l0.43,8,0.36,0.25c4.66-.12,5.93-0.16,11-0.12l0.42-.33c-0.37-3.15-.68-5.79-0.95-8.06Z" transform="translate(0 0)"/><path class="cls-4" d="M257.07,14.67c-1,2.62-1.43,3.89-2.15,6.15-1.85,5.78-3.55,11.51-5.07,17.25l-0.46.25c-5.25,0-6.53,0-11.25.16l-0.3-.25c3.75-10.16,4.58-12.74,7.94-23.47l-13.87.16-0.31-.25s3.63-5.29,9.17-5.29h31.8l0.35,0.12s-2.64,5.16-10.48,5.16h-5.38" transform="translate(0 0)"/><path class="cls-3" d="M118.69,27.51c-0.77-2.81-4.45-4.92-6.95-4v0c0.77,2.81,4.45,4.92,7,4v0Z" transform="translate(0 0)"/><path class="cls-3" d="M173.07,27.51c-0.77-2.81-4.45-4.92-7-4v0c0.77,2.81,4.45,4.92,6.95,4v0Z" transform="translate(0 0)"/><path class="cls-3" d="M230,27.51c-0.77-2.81-4.45-4.92-7-4v0c0.77,2.81,4.45,4.92,6.95,4v0Z" transform="translate(0 0)"/><path class="cls-3" d="M38.11,10.55C41.76,10,50,12,56.2,10.69S68.79,8.8,68.79,8.8,62.85,28.19,61.53,32,58.63,48.33,56,54.81c0,0-11,3.26-20.52,2.42s-15.07-1.32-19.56-.58c0,0,5.65-19.55,8.32-25.41S30,12.33,30,11.23a2.84,2.84,0,1,0,0-.47Z" transform="translate(0 0)"/><path class="cls-4" d="M11.8,2.67c5.32-1.13,27.1-5,37-.65,0,0-13.64,37.57-14.57,46.16,0,0-26.75,3.67-34.23,1.56,0,0,3.24-17,8-27.44C11,16,11.8,2.67,11.8,2.67" transform="translate(0 0)"/><path class="cls-5" d="M24,3.35C23.89,5.19,23.6,7,23.65,8.86c0.69,0.73.38,1.66,0.49,2.57a20.16,20.16,0,0,1-3.17,0,11.32,11.32,0,0,0-3.75.1,3.91,3.91,0,0,0-1.78,1.88,17.71,17.71,0,0,0-1.33,9.28,14.45,14.45,0,0,0-1.16,3.36c-0.55,1.43.08,2.83-.22,4.25a7,7,0,0,1-.3,1.26,1.44,1.44,0,0,0,.5.07c0.47-1.18,1.19-2.11.83-3.36a0.54,0.54,0,0,0,.49-0.51,7.67,7.67,0,0,1,.27-2.42,10.67,10.67,0,0,1,1.19-2.12,16.79,16.79,0,0,0,1.89-4.13,13.6,13.6,0,0,1,1.51-2.87c0,1.5.33,3,.45,4.49a19.1,19.1,0,0,1-.88,7.52c-0.15.59-.22,1.26-0.36,1.92-0.07.42-.23,0.93-0.3,1.34-0.43,2.76-.27,5.34-0.45,8-0.1,2.34.13,4.66,0.11,7a0.9,0.9,0,0,1-.23.59A1.42,1.42,0,0,0,18,47a4.74,4.74,0,0,1,1.06-.86,0.85,0.85,0,0,0,.48-0.6c0.15-.84,0-1.66.1-2.5a14.92,14.92,0,0,1,.2-1.92c0.38-1.43,1.18-2.61,1.56-4,0.52-2.35.88-4.52,1.23-6.95a18.29,18.29,0,0,1,.76-2.85,6.49,6.49,0,0,0,.37-1.84,2.06,2.06,0,0,1-.06,1,4.59,4.59,0,0,0,0,3.33c0.27,0.66,0,1.42.22,2.08a7.41,7.41,0,0,1,.64,2.23,21.84,21.84,0,0,1-.14,4.08,28.78,28.78,0,0,0,.11,7.08c0.1,0.5.94,0.72,1.44,1a10.09,10.09,0,0,1,0-2.75,20,20,0,0,1,.52-2.43,6.4,6.4,0,0,0,.62-1.6,15.23,15.23,0,0,0,.48-3.85c0.09-3-.08-6.08-0.16-9.08,0-.08.16-0.25,0.16-0.34,0-1.17-.15-2.41-0.1-3.58S28,20.24,28,19a7.37,7.37,0,0,0,.39-0.84,19.09,19.09,0,0,0,.52-5.35c-0.84-.48-1.45-1.13-2.38-1.69a0.87,0.87,0,0,1,0-1A47.07,47.07,0,0,1,27.64,5.5a2.76,2.76,0,0,0,0-1.83A0.83,0.83,0,0,0,27,3.27a3.56,3.56,0,0,0-2.09,0,1.19,1.19,0,0,0-.91.27V3.35" transform="translate(0 0)"/><path class="cls-5" d="M29,13.25a17,17,0,0,1,8.48,1.22,6.89,6.89,0,0,0,3.68.34c2.55-.07,5.12.42,7.55-0.43a1.64,1.64,0,0,1-1,1.14c0,0.11,0,.33,0,0.33,1.23,0.3,2.79.48,3.49,1.79-2.43.4-4.89,0.13-7.43,0.42a5,5,0,0,0-1.21.37C40.23,18.5,38,19,35.68,18.62c-1.9-.39-3.6-1.46-5.49-1.74-0.59-1.21-1.84-2.17-1.21-3.63" transform="translate(0 0)"/><path class="cls-5" d="M57.16,30.93c-1.54-5.61-8.9-9.85-13.9-8l0,0c1.54,5.61,8.9,9.85,13.9,8Z" transform="translate(0 0)"/><path class="cls-5" d="M54.14,41.21c-1.54-5.61-8.9-9.85-13.9-8l0,0c1.54,5.61,8.9,9.85,13.9,8Z" transform="translate(0 0)"/><path class="cls-5" d="M51.12,51.5c-1.54-5.61-8.9-9.85-13.9-8l0,0c1.54,5.61,8.89,9.85,13.9,8Z" transform="translate(0 0)"/></g></svg>